<svg width="80" height="30" viewBox="0 0 80 30" fill="none" xmlns="http://www.w3.org/2000/svg">
<path d="M22.8652 12H21.0781V3.43359H25.9883V4.92188H22.8652V7.13086H25.7715V8.61328H22.8652V12ZM31.6836 12L31.3379 11.1094H31.291C30.9902 11.4883 30.6797 11.752 30.3594 11.9004C30.043 12.0449 29.6289 12.1172 29.1172 12.1172C28.4883 12.1172 27.9922 11.9375 27.6289 11.5781C27.2695 11.2188 27.0898 10.707 27.0898 10.043C27.0898 9.34766 27.332 8.83594 27.8164 8.50781C28.3047 8.17578 29.0391 7.99219 30.0195 7.95703L31.1562 7.92188V7.63477C31.1562 6.9707 30.8164 6.63867 30.1367 6.63867C29.6133 6.63867 28.998 6.79688 28.291 7.11328L27.6992 5.90625C28.4531 5.51172 29.2891 5.31445 30.207 5.31445C31.0859 5.31445 31.7598 5.50586 32.2285 5.88867C32.6973 6.27148 32.9316 6.85352 32.9316 7.63477V12H31.6836ZM31.1562 8.96484L30.4648 8.98828C29.9453 9.00391 29.5586 9.09766 29.3047 9.26953C29.0508 9.44141 28.9238 9.70312 28.9238 10.0547C28.9238 10.5586 29.2129 10.8105 29.791 10.8105C30.2051 10.8105 30.5352 10.6914 30.7812 10.4531C31.0312 10.2148 31.1562 9.89844 31.1562 9.50391V8.96484ZM37.4375 12.1172C35.3984 12.1172 34.3789 10.998 34.3789 8.75977C34.3789 7.64648 34.6562 6.79688 35.2109 6.21094C35.7656 5.62109 36.5605 5.32617 37.5957 5.32617C38.3535 5.32617 39.0332 5.47461 39.6348 5.77148L39.1074 7.1543C38.8262 7.04102 38.5645 6.94922 38.3223 6.87891C38.0801 6.80469 37.8379 6.76758 37.5957 6.76758C36.666 6.76758 36.2012 7.42773 36.2012 8.74805C36.2012 10.0293 36.666 10.6699 37.5957 10.6699C37.9395 10.6699 38.2578 10.625 38.5508 10.5352C38.8438 10.4414 39.1367 10.2969 39.4297 10.1016V11.6309C39.1406 11.8145 38.8477 11.9414 38.5508 12.0117C38.2578 12.082 37.8867 12.1172 37.4375 12.1172ZM43.666 6.59766C43.2871 6.59766 42.9902 6.71875 42.7754 6.96094C42.5605 7.19922 42.4375 7.53906 42.4062 7.98047H44.9141C44.9062 7.53906 44.791 7.19922 44.5684 6.96094C44.3457 6.71875 44.0449 6.59766 43.666 6.59766ZM43.918 12.1172C42.8633 12.1172 42.0391 11.8262 41.4453 11.2441C40.8516 10.6621 40.5547 9.83789 40.5547 8.77148C40.5547 7.67383 40.8281 6.82617 41.375 6.22852C41.9258 5.62695 42.6855 5.32617 43.6543 5.32617C44.5801 5.32617 45.3008 5.58984 45.8164 6.11719C46.332 6.64453 46.5898 7.37305 46.5898 8.30273V9.16992H42.3652C42.3848 9.67773 42.5352 10.0742 42.8164 10.3594C43.0977 10.6445 43.4922 10.7871 44 10.7871C44.3945 10.7871 44.7676 10.7461 45.1191 10.6641C45.4707 10.582 45.8379 10.4512 46.2207 10.2715V11.6543C45.9082 11.8105 45.5742 11.9258 45.2188 12C44.8633 12.0781 44.4297 12.1172 43.918 12.1172ZM51.6875 5.32617C52.4609 5.32617 53.0664 5.62891 53.5039 6.23438C53.9414 6.83594 54.1602 7.66211 54.1602 8.71289C54.1602 9.79492 53.9336 10.6328 53.4805 11.2266C53.0312 11.8203 52.418 12.1172 51.6406 12.1172C50.8711 12.1172 50.2676 11.8379 49.8301 11.2793H49.707L49.4082 12H48.043V2.88281H49.8301V5.00391C49.8301 5.27344 49.8066 5.70508 49.7598 6.29883H49.8301C50.248 5.65039 50.8672 5.32617 51.6875 5.32617ZM51.1133 6.75586C50.6719 6.75586 50.3496 6.89258 50.1465 7.16602C49.9434 7.43555 49.8379 7.88281 49.8301 8.50781V8.70117C49.8301 9.4043 49.9336 9.9082 50.1406 10.2129C50.3516 10.5176 50.6836 10.6699 51.1367 10.6699C51.5039 10.6699 51.7949 10.502 52.0098 10.166C52.2285 9.82617 52.3379 9.33398 52.3379 8.68945C52.3379 8.04492 52.2285 7.5625 52.0098 7.24219C51.791 6.91797 51.4922 6.75586 51.1133 6.75586ZM57.0605 8.71289C57.0605 9.36133 57.166 9.85156 57.377 10.1836C57.5918 10.5156 57.9395 10.6816 58.4199 10.6816C58.8965 10.6816 59.2383 10.5176 59.4453 10.1895C59.6562 9.85742 59.7617 9.36523 59.7617 8.71289C59.7617 8.06445 59.6562 7.57812 59.4453 7.25391C59.2344 6.92969 58.8887 6.76758 58.4082 6.76758C57.9316 6.76758 57.5879 6.92969 57.377 7.25391C57.166 7.57422 57.0605 8.06055 57.0605 8.71289ZM61.5898 8.71289C61.5898 9.7793 61.3086 10.6133 60.7461 11.2148C60.1836 11.8164 59.4004 12.1172 58.3965 12.1172C57.7676 12.1172 57.2129 11.9805 56.7324 11.707C56.252 11.4297 55.8828 11.0332 55.625 10.5176C55.3672 10.002 55.2383 9.40039 55.2383 8.71289C55.2383 7.64258 55.5176 6.81055 56.0762 6.2168C56.6348 5.62305 57.4199 5.32617 58.4316 5.32617C59.0605 5.32617 59.6152 5.46289 60.0957 5.73633C60.5762 6.00977 60.9453 6.40234 61.2031 6.91406C61.4609 7.42578 61.5898 8.02539 61.5898 8.71289ZM64.4902 8.71289C64.4902 9.36133 64.5957 9.85156 64.8066 10.1836C65.0215 10.5156 65.3691 10.6816 65.8496 10.6816C66.3262 10.6816 66.668 10.5176 66.875 10.1895C67.0859 9.85742 67.1914 9.36523 67.1914 8.71289C67.1914 8.06445 67.0859 7.57812 66.875 7.25391C66.6641 6.92969 66.3184 6.76758 65.8379 6.76758C65.3613 6.76758 65.0176 6.92969 64.8066 7.25391C64.5957 7.57422 64.4902 8.06055 64.4902 8.71289ZM69.0195 8.71289C69.0195 9.7793 68.7383 10.6133 68.1758 11.2148C67.6133 11.8164 66.8301 12.1172 65.8262 12.1172C65.1973 12.1172 64.6426 11.9805 64.1621 11.707C63.6816 11.4297 63.3125 11.0332 63.0547 10.5176C62.7969 10.002 62.668 9.40039 62.668 8.71289C62.668 7.64258 62.9473 6.81055 63.5059 6.2168C64.0645 5.62305 64.8496 5.32617 65.8613 5.32617C66.4902 5.32617 67.0449 5.46289 67.5254 5.73633C68.0059 6.00977 68.375 6.40234 68.6328 6.91406C68.8906 7.42578 69.0195 8.02539 69.0195 8.71289ZM72.2129 8.4375L72.9922 7.44141L74.8262 5.44922H76.8418L74.2402 8.29102L77 12H74.9375L73.0508 9.3457L72.2832 9.96094V12H70.4961V2.88281H72.2832V6.94922L72.1895 8.4375H72.2129ZM24.9453 22.5117H27.8574V26.6777C27.4043 26.8223 26.9434 26.9316 26.4746 27.0059C26.0059 27.0801 25.4629 27.1172 24.8457 27.1172C23.5488 27.1172 22.5391 26.7324 21.8164 25.9629C21.0938 25.1895 20.7324 24.1074 20.7324 22.7168C20.7324 21.8262 20.9102 21.0469 21.2656 20.3789C21.625 19.707 22.1406 19.1953 22.8125 18.8438C23.4844 18.4883 24.2715 18.3105 25.1738 18.3105C26.0879 18.3105 26.9395 18.4785 27.7285 18.8145L27.3418 19.6934C26.5684 19.3652 25.8242 19.2012 25.1094 19.2012C24.0664 19.2012 23.252 19.5117 22.666 20.1328C22.0801 20.7539 21.7871 21.6152 21.7871 22.7168C21.7871 23.873 22.0684 24.75 22.6309 25.3477C23.1973 25.9453 24.0273 26.2441 25.1211 26.2441C25.7148 26.2441 26.2949 26.1758 26.8613 26.0391V23.4023H24.9453V22.5117ZM33.7227 27L33.5293 26.0859H33.4824C33.1621 26.4883 32.8418 26.7617 32.5215 26.9062C32.2051 27.0469 31.8086 27.1172 31.332 27.1172C30.6953 27.1172 30.1953 26.9531 29.832 26.625C29.4727 26.2969 29.293 25.8301 29.293 25.2246C29.293 23.9277 30.3301 23.248 32.4043 23.1855L33.4941 23.1504V22.752C33.4941 22.248 33.3848 21.877 33.166 21.6387C32.9512 21.3965 32.6055 21.2754 32.1289 21.2754C31.5938 21.2754 30.9883 21.4395 30.3125 21.7676L30.0137 21.0234C30.3301 20.8516 30.6758 20.7168 31.0508 20.6191C31.4297 20.5215 31.8086 20.4727 32.1875 20.4727C32.9531 20.4727 33.5195 20.6426 33.8867 20.9824C34.2578 21.3223 34.4434 21.8672 34.4434 22.6172V27H33.7227ZM31.5254 26.3145C32.1309 26.3145 32.6055 26.1484 32.9492 25.8164C33.2969 25.4844 33.4707 25.0195 33.4707 24.4219V23.8418L32.498 23.8828C31.7246 23.9102 31.166 24.0312 30.8223 24.2461C30.4824 24.457 30.3125 24.7871 30.3125 25.2363C30.3125 25.5879 30.418 25.8555 30.6289 26.0391C30.8438 26.2227 31.1426 26.3145 31.5254 26.3145ZM44.6387 27V22.8223C44.6387 22.3105 44.5293 21.9277 44.3105 21.6738C44.0918 21.416 43.752 21.2871 43.291 21.2871C42.6855 21.2871 42.2383 21.4609 41.9492 21.8086C41.6602 22.1562 41.5156 22.6914 41.5156 23.4141V27H40.543V22.8223C40.543 22.3105 40.4336 21.9277 40.2148 21.6738C39.9961 21.416 39.6543 21.2871 39.1895 21.2871C38.5801 21.2871 38.1328 21.4707 37.8477 21.8379C37.5664 22.2012 37.4258 22.7988 37.4258 23.6309V27H36.4531V20.5781H37.2441L37.4023 21.457H37.4492C37.6328 21.1445 37.8906 20.9004 38.2227 20.7246C38.5586 20.5488 38.9336 20.4609 39.3477 20.4609C40.3516 20.4609 41.0078 20.8242 41.3164 21.5508H41.3633C41.5547 21.2148 41.832 20.9492 42.1953 20.7539C42.5586 20.5586 42.9727 20.4609 43.4375 20.4609C44.1641 20.4609 44.707 20.6484 45.0664 21.0234C45.4297 21.3945 45.6113 21.9902 45.6113 22.8105V27H44.6387ZM50.334 27.1172C49.3848 27.1172 48.6348 26.8281 48.084 26.25C47.5371 25.6719 47.2637 24.8691 47.2637 23.8418C47.2637 22.8066 47.5176 21.9844 48.0254 21.375C48.5371 20.7656 49.2227 20.4609 50.082 20.4609C50.8867 20.4609 51.5234 20.7266 51.9922 21.2578C52.4609 21.7852 52.6953 22.4824 52.6953 23.3496V23.9648H48.2715C48.291 24.7188 48.4805 25.291 48.8398 25.6816C49.2031 26.0723 49.7129 26.2676 50.3691 26.2676C51.0605 26.2676 51.7441 26.123 52.4199 25.834V26.7012C52.0762 26.8496 51.75 26.9551 51.4414 27.0176C51.1367 27.084 50.7676 27.1172 50.334 27.1172ZM50.0703 21.2754C49.5547 21.2754 49.1426 21.4434 48.834 21.7793C48.5293 22.1152 48.3496 22.5801 48.2949 23.1738H51.6523C51.6523 22.5605 51.5156 22.0918 51.2422 21.7676C50.9688 21.4395 50.5781 21.2754 50.0703 21.2754ZM63.0547 20.9297C63.0547 21.7969 62.7578 22.4648 62.1641 22.9336C61.5742 23.3984 60.7285 23.6309 59.627 23.6309H58.6191V27H57.623V18.4336H59.8438C61.9844 18.4336 63.0547 19.2656 63.0547 20.9297ZM58.6191 22.7754H59.5156C60.3984 22.7754 61.0371 22.6328 61.4316 22.3477C61.8262 22.0625 62.0234 21.6055 62.0234 20.9766C62.0234 20.4102 61.8379 19.9883 61.4668 19.7109C61.0957 19.4336 60.5176 19.2949 59.7324 19.2949H58.6191V22.7754ZM65.6797 27H64.707V17.8828H65.6797V27ZM71.6914 27L71.498 26.0859H71.4512C71.1309 26.4883 70.8105 26.7617 70.4902 26.9062C70.1738 27.0469 69.7773 27.1172 69.3008 27.1172C68.6641 27.1172 68.1641 26.9531 67.8008 26.625C67.4414 26.2969 67.2617 25.8301 67.2617 25.2246C67.2617 23.9277 68.2988 23.248 70.373 23.1855L71.4629 23.1504V22.752C71.4629 22.248 71.3535 21.877 71.1348 21.6387C70.9199 21.3965 70.5742 21.2754 70.0977 21.2754C69.5625 21.2754 68.957 21.4395 68.2812 21.7676L67.9824 21.0234C68.2988 20.8516 68.6445 20.7168 69.0195 20.6191C69.3984 20.5215 69.7773 20.4727 70.1562 20.4727C70.9219 20.4727 71.4883 20.6426 71.8555 20.9824C72.2266 21.3223 72.4121 21.8672 72.4121 22.6172V27H71.6914ZM69.4941 26.3145C70.0996 26.3145 70.5742 26.1484 70.918 25.8164C71.2656 25.4844 71.4395 25.0195 71.4395 24.4219V23.8418L70.4668 23.8828C69.6934 23.9102 69.1348 24.0312 68.791 24.2461C68.4512 24.457 68.2812 24.7871 68.2812 25.2363C68.2812 25.5879 68.3867 25.8555 68.5977 26.0391C68.8125 26.2227 69.1113 26.3145 69.4941 26.3145ZM73.4023 20.5781H74.4453L75.8516 24.2402C76.1602 25.0762 76.3516 25.6797 76.4258 26.0508H76.4727C76.5234 25.8516 76.6289 25.5117 76.7891 25.0312C76.9531 24.5469 77.4844 23.0625 78.3828 20.5781H79.4258L76.666 27.8906C76.3926 28.6133 76.0723 29.125 75.7051 29.4258C75.3418 29.7305 74.8945 29.8828 74.3633 29.8828C74.0664 29.8828 73.7734 29.8496 73.4844 29.7832V29.0039C73.6992 29.0508 73.9395 29.0742 74.2051 29.0742C74.873 29.0742 75.3496 28.6992 75.6348 27.9492L75.9922 27.0352L73.4023 20.5781Z" fill="#E6AB58"/>
<path d="M7.70381 26V15.9655H11.0706L11.5757 12.0537H7.70381V9.55662C7.70381 8.42442 8.01692 7.65284 9.64233 7.65284L11.712 7.65199V4.15315C11.3541 4.10664 10.1255 4 8.69547 4C5.70942 4 3.66511 5.82266 3.66511 9.1692V12.0537H0.288086V15.9655H3.66511V26H7.70381Z" fill="#E6AB58"/>
</svg>
