<svg width="22" height="20" viewBox="0 0 22 20" fill="none" xmlns="http://www.w3.org/2000/svg">
<path fill-rule="evenodd" clip-rule="evenodd" d="M17.3458 5.91998H22C22 2.18305 19.7609 0 15.9671 0H6.03289C2.23911 0 0 2.18305 0 5.87232V13.9277C0 17.6169 2.23911 19.8 6.03289 19.8H15.9671C19.7609 19.8 22 17.6169 22 13.9277V13.5845H17.3458C15.1857 13.5845 13.4347 11.8773 13.4347 9.7713C13.4347 7.66534 15.1857 5.95811 17.3458 5.95811V5.91998ZM17.3457 7.55964H21.1786C21.6322 7.55964 21.9999 7.91816 21.9999 8.36041V11.144C21.9946 11.5841 21.63 11.9397 21.1786 11.9448H17.4337C16.3402 11.9592 15.384 11.2292 15.1359 10.1907C15.0117 9.54611 15.1861 8.88091 15.6123 8.37342C16.0385 7.86594 16.673 7.56807 17.3457 7.55964ZM17.5121 10.4863H17.8739C18.3383 10.4863 18.7148 10.1192 18.7148 9.66644C18.7148 9.21366 18.3383 8.84661 17.8739 8.84661H17.5121C17.29 8.84406 17.0761 8.9283 16.9181 9.08054C16.7601 9.23278 16.6712 9.44034 16.6712 9.65691C16.6712 10.1113 17.0461 10.4811 17.5121 10.4863ZM5.21156 5.91997H11.4204C11.8849 5.91997 12.2613 5.55291 12.2613 5.10013C12.2613 4.64735 11.8849 4.28029 11.4204 4.28029H5.21156C4.75094 4.28026 4.37603 4.64154 4.37067 5.0906C4.37064 5.54495 4.74557 5.91474 5.21156 5.91997Z" fill="white"/>
</svg>
