<svg width="54" height="54" viewBox="0 0 54 54" fill="none" xmlns="http://www.w3.org/2000/svg">
<path fill-rule="evenodd" clip-rule="evenodd" d="M0.333252 27.0154C0.333252 12.2966 12.3024 0.333252 26.9999 0.333252C41.6975 0.333252 53.6666 12.2966 53.6666 27.0154C53.6666 41.7032 41.6975 53.6666 26.9999 53.6666C12.3024 53.6666 0.333252 41.7032 0.333252 27.0154ZM36.7811 29.7144C37.0643 29.4314 37.4246 28.994 37.5018 28.8911C37.9137 28.3508 38.1196 27.6819 38.1196 27.0156C38.1196 26.2669 37.8879 25.5722 37.4504 25.0062C37.4145 24.9704 37.3443 24.894 37.2528 24.7944C37.0816 24.608 36.8358 24.3405 36.6009 24.1058C34.4903 21.8417 28.9819 18.137 26.099 17.0049C25.6614 16.8274 24.5546 16.4389 23.9626 16.4132C23.3963 16.4132 22.8558 16.5418 22.341 16.7991C21.6975 17.1593 21.1827 17.7253 20.8995 18.3942C20.7193 18.8573 20.4362 20.2466 20.4362 20.2724C20.1531 21.7903 19.9986 24.2601 19.9986 26.9873C19.9986 29.5883 20.1531 31.9527 20.3847 33.4963C20.3911 33.5027 20.4132 33.6131 20.4476 33.7846C20.5522 34.306 20.7701 35.3923 21.0025 35.8376C21.5688 36.9181 22.6756 37.587 23.8596 37.587H23.9626C24.7348 37.5613 26.3564 36.8924 26.3564 36.8667C29.0849 35.7346 34.4645 32.21 36.6267 29.8687L36.7811 29.7144Z" fill="url(#paint0_linear)"/>
<defs>
<linearGradient id="paint0_linear" x1="26.9999" y1="0.333252" x2="26.9999" y2="53.6666" gradientUnits="userSpaceOnUse">
<stop stop-color="#E6AB58"/>
<stop offset="1" stop-color="#F8CD91"/>
</linearGradient>
</defs>
</svg>
